<svg width="6623" height="1106" viewBox="0 0 6623 1106" fill="none" xmlns="http://www.w3.org/2000/svg">
<path d="M6529.64 1040.17C6528.05 1041.1 6527.07 1042.81 6527.07 1044.66L6527.07 1051.25C6527.07 1053.1 6528.05 1054.81 6529.64 1055.74L6535.31 1059.03C6536.91 1059.96 6538.88 1059.96 6540.47 1059.03L6546.15 1055.74C6547.75 1054.81 6548.73 1053.1 6548.73 1051.24L6548.73 1044.66C6548.73 1042.81 6547.75 1041.1 6546.15 1040.17L6540.47 1036.87C6538.88 1035.95 6536.91 1035.95 6535.31 1036.88L6529.64 1040.17Z" fill="blue"/>
<path d="M6480.86 1059.61C6471.81 1059.61 6464.73 1057.1 6459.63 1052.09C6454.61 1047.07 6452.1 1039.32 6452.1 1028.84V937.467H6432.89C6431.9 937.467 6431.1 937.199 6430.47 936.661C6429.84 936.124 6429.53 935.362 6429.53 934.377V929.405L6452.37 927.793L6455.6 879.956C6455.78 879.15 6456.13 878.433 6456.67 877.806C6457.21 877.179 6457.97 876.865 6458.96 876.865H6465V927.927H6507.2V937.467H6465V1028.17C6465 1031.84 6465.45 1035.02 6466.35 1037.71C6467.33 1040.31 6468.63 1042.46 6470.24 1044.16C6471.94 1045.86 6473.92 1047.12 6476.15 1047.92C6478.39 1048.73 6480.81 1049.13 6483.41 1049.13C6486.64 1049.13 6489.41 1048.68 6491.74 1047.79C6494.07 1046.8 6496.09 1045.77 6497.79 1044.7C6499.49 1043.53 6500.88 1042.5 6501.95 1041.61C6503.03 1040.62 6503.88 1040.13 6504.51 1040.13C6505.22 1040.13 6505.94 1040.58 6506.66 1041.47L6510.15 1047.12C6506.75 1050.88 6502.4 1053.92 6497.12 1056.25C6491.92 1058.49 6486.5 1059.61 6480.86 1059.61Z" fill="blue"/>
<path d="M6410.05 941.773C6409.6 942.22 6409.15 942.624 6408.7 942.982C6408.34 943.251 6407.81 943.385 6407.09 943.385C6406.19 943.385 6404.98 942.803 6403.46 941.638C6401.94 940.384 6399.88 939.04 6397.28 937.607C6394.68 936.174 6391.41 934.875 6387.47 933.71C6383.62 932.456 6378.92 931.829 6373.36 931.829C6365.66 931.829 6358.81 933.217 6352.8 935.994C6346.89 938.682 6341.87 942.579 6337.75 947.685C6333.63 952.791 6330.5 958.972 6328.35 966.228C6326.29 973.484 6325.26 981.636 6325.26 990.684C6325.26 1000.09 6326.33 1008.42 6328.48 1015.68C6330.72 1022.93 6333.86 1029.07 6337.89 1034.09C6341.92 1039.01 6346.8 1042.78 6352.53 1045.37C6358.27 1047.97 6364.63 1049.27 6371.62 1049.27C6378.07 1049.27 6383.44 1048.51 6387.74 1046.99C6392.13 1045.46 6395.71 1043.81 6398.49 1042.01C6401.36 1040.22 6403.6 1038.57 6405.21 1037.04C6406.82 1035.52 6408.16 1034.76 6409.24 1034.76C6410.31 1034.76 6411.21 1035.21 6411.93 1036.1L6415.29 1040.4C6413.23 1043.09 6410.63 1045.6 6407.49 1047.93C6404.36 1050.26 6400.82 1052.27 6396.88 1053.97C6392.94 1055.68 6388.64 1056.97 6383.98 1057.87C6379.41 1058.86 6374.62 1059.35 6369.6 1059.35C6361.09 1059.35 6353.3 1057.83 6346.22 1054.78C6339.23 1051.64 6333.18 1047.17 6328.08 1041.34C6323.06 1035.43 6319.12 1028.22 6316.25 1019.71C6313.48 1011.2 6312.09 1001.52 6312.09 990.684C6312.09 980.472 6313.43 971.155 6316.12 962.735C6318.81 954.314 6322.75 947.058 6327.94 940.966C6333.14 934.875 6339.46 930.172 6346.89 926.857C6354.42 923.453 6363.02 921.751 6372.69 921.751C6381.38 921.751 6389.08 923.139 6395.8 925.917C6402.52 928.694 6408.39 932.456 6413.41 937.204L6410.05 941.773Z" fill="blue"/>
<path d="M6267.75 993.103C6255.03 993.551 6244.06 994.581 6234.83 996.193C6225.7 997.716 6218.13 999.822 6212.12 1002.51C6206.21 1005.2 6201.82 1008.42 6198.96 1012.18C6196.09 1015.86 6194.66 1020.07 6194.66 1024.81C6194.66 1029.29 6195.37 1033.19 6196.81 1036.51C6198.33 1039.73 6200.3 1042.42 6202.72 1044.57C6205.23 1046.63 6208.09 1048.15 6211.32 1049.14C6214.54 1050.12 6217.9 1050.61 6221.4 1050.61C6226.59 1050.61 6231.34 1050.08 6235.64 1049C6240.03 1047.84 6244.06 1046.27 6247.73 1044.3C6251.49 1042.24 6254.99 1039.82 6258.21 1037.04C6261.44 1034.27 6264.62 1031.26 6267.75 1028.04V993.103ZM6189.15 942.982C6196.13 935.994 6203.48 930.709 6211.18 927.126C6218.89 923.543 6227.62 921.751 6237.39 921.751C6244.55 921.751 6250.82 922.916 6256.2 925.245C6261.57 927.484 6266.01 930.754 6269.5 935.054C6273.08 939.264 6275.77 944.415 6277.56 950.507C6279.35 956.509 6280.25 963.227 6280.25 970.663V1057.74H6275.14C6272.46 1057.74 6270.8 1056.48 6270.17 1053.97L6268.29 1036.77C6264.62 1040.36 6260.95 1043.58 6257.27 1046.45C6253.69 1049.32 6249.93 1051.73 6245.99 1053.71C6242.04 1055.68 6237.79 1057.2 6233.22 1058.27C6228.65 1059.35 6223.63 1059.89 6218.17 1059.89C6213.6 1059.89 6209.17 1059.21 6204.87 1057.87C6200.57 1056.53 6196.72 1054.47 6193.31 1051.69C6190 1048.91 6187.31 1045.37 6185.25 1041.07C6183.28 1036.68 6182.29 1031.44 6182.29 1025.35C6182.29 1019.71 6183.91 1014.47 6187.13 1009.63C6190.36 1004.79 6195.42 1000.58 6202.31 997C6209.21 993.416 6218.04 990.55 6228.79 988.4C6239.63 986.25 6252.61 984.996 6267.75 984.637V970.663C6267.75 958.3 6265.07 948.805 6259.69 942.176C6254.41 935.457 6246.52 932.098 6236.04 932.098C6229.59 932.098 6224.08 932.993 6219.51 934.785C6215.04 936.577 6211.23 938.548 6208.09 940.698C6204.96 942.847 6202.4 944.818 6200.43 946.61C6198.46 948.402 6196.81 949.297 6195.46 949.297C6194.48 949.297 6193.67 949.073 6193.04 948.626C6192.42 948.178 6191.88 947.595 6191.43 946.879L6189.15 942.982Z" fill="blue"/>
<path d="M6060.59 1028.58C6063.18 1032.43 6065.87 1035.7 6068.65 1038.39C6071.51 1040.98 6074.52 1043.13 6077.65 1044.84C6080.79 1046.45 6084.1 1047.61 6087.59 1048.33C6091.18 1049.05 6094.94 1049.41 6098.88 1049.41C6106.77 1049.41 6113.66 1047.97 6119.58 1045.11C6125.49 1042.24 6130.42 1038.21 6134.36 1033.01C6138.39 1027.73 6141.39 1021.46 6143.36 1014.2C6145.42 1006.85 6146.45 998.791 6146.45 990.012C6146.45 970.125 6142.78 955.523 6135.43 946.207C6128.09 936.801 6117.56 932.098 6103.85 932.098C6094.99 932.098 6086.97 934.382 6079.8 938.951C6072.63 943.519 6066.23 949.88 6060.59 958.032V1028.58ZM6060.05 948.088C6065.96 940.026 6072.86 933.621 6080.74 928.873C6088.71 924.125 6097.63 921.751 6107.48 921.751C6123.88 921.751 6136.64 927.439 6145.78 938.816C6155.01 950.193 6159.62 967.259 6159.62 990.012C6159.62 999.777 6158.32 1008.91 6155.72 1017.42C6153.21 1025.85 6149.45 1033.19 6144.43 1039.46C6139.51 1045.64 6133.42 1050.52 6126.16 1054.11C6118.99 1057.69 6110.71 1059.48 6101.3 1059.48C6092.25 1059.48 6084.41 1057.83 6077.79 1054.51C6071.16 1051.2 6065.42 1046.31 6060.59 1039.86V1105.04H6047.69V924.035H6054.81C6057.05 924.035 6058.35 925.155 6058.7 927.395L6060.05 948.088Z" fill="blue"/>
<path d="M5834.32 1057.6V923.901H5841.45C5843.69 923.901 5844.98 925.021 5845.34 927.26L5846.55 946.61C5851.75 939.175 5857.71 933.173 5864.42 928.604C5871.14 924.035 5878.71 921.751 5887.13 921.751C5896.9 921.751 5904.69 924.573 5910.51 930.216C5916.43 935.86 5920.41 943.699 5922.47 953.732C5924.09 948.267 5926.32 943.519 5929.19 939.488C5932.15 935.457 5935.51 932.142 5939.27 929.545C5943.03 926.857 5947.11 924.886 5951.5 923.632C5955.98 922.378 5960.55 921.751 5965.2 921.751C5971.83 921.751 5977.79 922.871 5983.08 925.11C5988.36 927.26 5992.84 930.485 5996.51 934.785C6000.19 939.085 6003.01 944.37 6004.98 950.641C6006.95 956.912 6007.93 964.078 6007.93 972.141V1057.6H5995.17V972.141C5995.17 959.062 5992.35 949.118 5986.7 942.31C5981.06 935.412 5973 931.963 5962.52 931.963C5957.86 931.963 5953.38 932.814 5949.08 934.516C5944.87 936.218 5941.11 938.772 5937.79 942.176C5934.57 945.49 5931.97 949.656 5930 954.672C5928.12 959.689 5927.18 965.512 5927.18 972.141V1057.6H5914.28V972.141C5914.28 959.151 5911.68 949.208 5906.48 942.31C5901.38 935.412 5893.85 931.963 5883.91 931.963C5876.65 931.963 5869.93 934.113 5863.75 938.413C5857.57 942.713 5852.06 948.67 5847.22 956.285V1057.6H5834.32Z" fill="blue"/>
<path d="M5791.7 923.848V1057.55H5778.94V923.848H5791.7ZM5797.21 877.758C5797.21 879.371 5796.86 880.893 5796.14 882.327C5795.51 883.67 5794.66 884.88 5793.59 885.955C5792.51 887.03 5791.26 887.881 5789.82 888.508C5788.39 889.135 5786.87 889.449 5785.26 889.449C5783.64 889.449 5782.12 889.135 5780.69 888.508C5779.25 887.881 5778 887.03 5776.92 885.955C5775.85 884.88 5775 883.67 5774.37 882.327C5773.74 880.893 5773.43 879.371 5773.43 877.758C5773.43 876.146 5773.74 874.623 5774.37 873.189C5775 871.666 5775.85 870.368 5776.92 869.293C5778 868.218 5779.25 867.367 5780.69 866.739C5782.12 866.112 5783.64 865.799 5785.26 865.799C5786.87 865.799 5788.39 866.112 5789.82 866.739C5791.26 867.367 5792.51 868.218 5793.59 869.293C5794.66 870.368 5795.51 871.666 5796.14 873.189C5796.86 874.623 5797.21 876.146 5797.21 877.758Z" fill="blue"/>
<path d="M5665.23 862.106V1057.62H5652.33V862.106H5665.23Z" fill="blue"/>
<path d="M5598.84 993.103C5586.12 993.551 5575.14 994.581 5565.92 996.193C5556.78 997.716 5549.21 999.822 5543.21 1002.51C5537.3 1005.2 5532.91 1008.42 5530.04 1012.18C5527.17 1015.86 5525.74 1020.07 5525.74 1024.81C5525.74 1029.29 5526.46 1033.19 5527.89 1036.51C5529.41 1039.73 5531.38 1042.42 5533.8 1044.57C5536.31 1046.63 5539.18 1048.15 5542.4 1049.14C5545.63 1050.12 5548.99 1050.61 5552.48 1050.61C5557.68 1050.61 5562.42 1050.08 5566.72 1049C5571.11 1047.84 5575.14 1046.27 5578.82 1044.3C5582.58 1042.24 5586.07 1039.82 5589.3 1037.04C5592.52 1034.27 5595.7 1031.26 5598.84 1028.04V993.103ZM5520.23 942.982C5527.22 935.994 5534.56 930.709 5542.27 927.126C5549.97 923.543 5558.71 921.751 5568.47 921.751C5575.64 921.751 5581.91 922.916 5587.28 925.245C5592.66 927.484 5597.09 930.754 5600.59 935.054C5604.17 939.264 5606.86 944.415 5608.65 950.507C5610.44 956.509 5611.34 963.227 5611.34 970.663V1057.74H5606.23C5603.54 1057.74 5601.88 1056.48 5601.26 1053.97L5599.38 1036.77C5595.7 1040.36 5592.03 1043.58 5588.36 1046.45C5584.77 1049.32 5581.01 1051.73 5577.07 1053.71C5573.13 1055.68 5568.87 1057.2 5564.3 1058.27C5559.74 1059.35 5554.72 1059.89 5549.25 1059.89C5544.69 1059.89 5540.25 1059.21 5535.95 1057.87C5531.65 1056.53 5527.8 1054.47 5524.4 1051.69C5521.08 1048.91 5518.39 1045.37 5516.33 1041.07C5514.36 1036.68 5513.38 1031.44 5513.38 1025.35C5513.38 1019.71 5514.99 1014.47 5518.21 1009.63C5521.44 1004.79 5526.5 1000.58 5533.4 997C5540.3 993.416 5549.12 990.55 5559.87 988.4C5570.71 986.25 5583.7 984.996 5598.84 984.637V970.663C5598.84 958.3 5596.15 948.805 5590.78 942.176C5585.49 935.457 5577.61 932.098 5567.13 932.098C5560.68 932.098 5555.17 932.993 5550.6 934.785C5546.12 936.577 5542.31 938.548 5539.18 940.698C5536.04 942.847 5533.49 944.818 5531.52 946.61C5529.55 948.402 5527.89 949.297 5526.55 949.297C5525.56 949.297 5524.75 949.073 5524.13 948.626C5523.5 948.178 5522.96 947.595 5522.51 946.879L5520.23 942.982Z" fill="blue"/>
<path d="M5480.55 977.247C5480.55 970.08 5479.52 963.675 5477.46 958.032C5475.49 952.298 5472.67 947.461 5468.99 943.519C5465.32 939.578 5460.93 936.577 5455.82 934.516C5450.81 932.366 5445.25 931.291 5439.16 931.291C5432.26 931.291 5426.08 932.366 5420.62 934.516C5415.15 936.666 5410.41 939.757 5406.37 943.788C5402.43 947.819 5399.25 952.657 5396.83 958.3C5394.42 963.944 5392.8 970.26 5392 977.247H5480.55ZM5391.32 985.444V987.997C5391.32 998.03 5392.49 1006.85 5394.82 1014.47C5397.15 1022.08 5400.46 1028.49 5404.76 1033.68C5409.06 1038.79 5414.26 1042.64 5420.35 1045.24C5426.44 1047.84 5433.25 1049.14 5440.77 1049.14C5447.49 1049.14 5453.32 1048.42 5458.24 1046.99C5463.17 1045.46 5467.29 1043.81 5470.6 1042.01C5474.01 1040.13 5476.7 1038.48 5478.67 1037.04C5480.64 1035.52 5482.07 1034.76 5482.97 1034.76C5484.13 1034.76 5485.03 1035.21 5485.65 1036.1L5489.15 1040.4C5487 1043.09 5484.13 1045.6 5480.55 1047.93C5477.05 1050.26 5473.11 1052.27 5468.72 1053.97C5464.42 1055.59 5459.77 1056.89 5454.75 1057.87C5449.82 1058.86 5444.85 1059.35 5439.83 1059.35C5430.7 1059.35 5422.36 1057.78 5414.84 1054.65C5407.32 1051.42 5400.87 1046.76 5395.49 1040.67C5390.12 1034.58 5385.95 1027.14 5382.99 1018.36C5380.13 1009.5 5378.69 999.374 5378.69 987.997C5378.69 978.411 5380.04 969.588 5382.72 961.525C5385.5 953.373 5389.44 946.386 5394.55 940.563C5399.75 934.651 5406.06 930.037 5413.5 926.723C5421.02 923.408 5429.53 921.751 5439.03 921.751C5446.55 921.751 5453.54 923.05 5459.99 925.648C5466.44 928.246 5472.04 932.053 5476.79 937.069C5481.53 941.996 5485.25 948.088 5487.94 955.344C5490.72 962.6 5492.1 970.931 5492.1 980.337C5492.1 982.308 5491.84 983.652 5491.3 984.369C5490.76 985.085 5489.86 985.444 5488.61 985.444H5391.32Z" fill="blue"/>
<path d="M5314.67 956.285C5316.73 950.82 5319.06 945.983 5321.66 941.773C5324.34 937.473 5327.39 933.845 5330.79 930.888C5334.29 927.932 5338.14 925.693 5342.35 924.17C5346.65 922.557 5351.4 921.751 5356.59 921.751C5359.37 921.751 5362.1 922.02 5364.79 922.557C5367.48 923.005 5369.85 923.856 5371.91 925.11L5370.84 933.979C5370.39 935.412 5369.54 936.129 5368.28 936.129C5367.21 936.129 5365.55 935.815 5363.31 935.188C5361.16 934.561 5358.3 934.248 5354.71 934.248C5349.52 934.248 5344.9 935.054 5340.87 936.666C5336.93 938.189 5333.35 940.518 5330.12 943.654C5326.99 946.789 5324.21 950.686 5321.79 955.344C5319.46 959.913 5317.31 965.198 5315.34 971.2V1057.74H5302.44V924.035H5309.29C5310.82 924.035 5311.89 924.349 5312.52 924.976C5313.15 925.603 5313.55 926.678 5313.73 928.201L5314.67 956.285Z" fill="blue"/>
<path d="M5158.47 956.285C5160.53 950.82 5162.86 945.983 5165.46 941.773C5168.14 937.473 5171.19 933.845 5174.59 930.888C5178.09 927.932 5181.94 925.693 5186.15 924.17C5190.45 922.557 5195.2 921.751 5200.39 921.751C5203.17 921.751 5205.9 922.02 5208.59 922.557C5211.28 923.005 5213.65 923.856 5215.71 925.11L5214.64 933.979C5214.19 935.412 5213.34 936.129 5212.08 936.129C5211.01 936.129 5209.35 935.815 5207.11 935.188C5204.96 934.561 5202.09 934.248 5198.51 934.248C5193.32 934.248 5188.7 935.054 5184.67 936.666C5180.73 938.189 5177.15 940.518 5173.92 943.654C5170.79 946.789 5168.01 950.686 5165.59 955.344C5163.26 959.913 5161.11 965.198 5159.14 971.2V1057.74H5146.24V924.035H5153.09C5154.62 924.035 5155.69 924.349 5156.32 924.976C5156.95 925.603 5157.35 926.678 5157.53 928.201L5158.47 956.285Z" fill="blue"/>
<path d="M5052.31 921.751C5061.9 921.751 5070.46 923.408 5077.98 926.723C5085.59 929.948 5092 934.561 5097.2 940.563C5102.39 946.565 5106.33 953.821 5109.02 962.332C5111.8 970.752 5113.19 980.203 5113.19 990.684C5113.19 1001.17 5111.8 1010.62 5109.02 1019.04C5106.33 1027.46 5102.39 1034.67 5097.2 1040.67C5092 1046.67 5085.59 1051.29 5077.98 1054.51C5070.46 1057.74 5061.9 1059.35 5052.31 1059.35C5042.73 1059.35 5034.13 1057.74 5026.52 1054.51C5018.99 1051.29 5012.59 1046.67 5007.3 1040.67C5002.1 1034.67 4998.12 1027.46 4995.34 1019.04C4992.65 1010.62 4991.31 1001.17 4991.31 990.684C4991.31 980.203 4992.65 970.752 4995.34 962.332C4998.12 953.821 5002.1 946.565 5007.3 940.563C5012.59 934.561 5018.99 929.948 5026.52 926.723C5034.13 923.408 5042.73 921.751 5052.31 921.751ZM5052.31 1049.27C5060.29 1049.27 5067.23 1047.93 5073.14 1045.24C5079.14 1042.46 5084.12 1038.52 5088.06 1033.41C5092.09 1028.31 5095.09 1022.17 5097.06 1015.01C5099.03 1007.75 5100.02 999.642 5100.02 990.684C5100.02 981.816 5099.03 973.753 5097.06 966.497C5095.09 959.241 5092.09 953.06 5088.06 947.954C5084.12 942.758 5079.14 938.772 5073.14 935.994C5067.23 933.217 5060.29 931.829 5052.31 931.829C5044.34 931.829 5037.35 933.217 5031.35 935.994C5025.44 938.772 5020.47 942.758 5016.44 947.954C5012.5 953.06 5009.49 959.241 5007.43 966.497C5005.46 973.753 5004.48 981.816 5004.48 990.684C5004.48 999.642 5005.46 1007.75 5007.43 1015.01C5009.49 1022.17 5012.5 1028.31 5016.44 1033.41C5020.47 1038.52 5025.44 1042.46 5031.35 1045.24C5037.35 1047.93 5044.34 1049.27 5052.31 1049.27Z" fill="blue"/>
<path d="M4924.12 1057.74V938.014L4905.31 936.805C4902.8 936.536 4901.55 935.416 4901.55 933.445V928.205H4924.12V911.274C4924.12 903.659 4925.11 896.985 4927.08 891.252C4929.05 885.429 4931.82 880.592 4935.41 876.74C4938.99 872.888 4943.29 870.021 4948.31 868.14C4953.32 866.169 4958.88 865.184 4964.97 865.184C4967.75 865.184 4970.52 865.452 4973.3 865.99C4976.17 866.438 4978.72 867.11 4980.96 868.005L4980.56 874.187C4980.38 874.993 4979.98 875.53 4979.35 875.799C4978.81 875.978 4978 876.068 4976.93 876.068C4975.85 875.978 4974.47 875.844 4972.76 875.665C4971.06 875.396 4969.09 875.262 4966.85 875.262C4962.46 875.262 4958.39 875.933 4954.62 877.277C4950.95 878.531 4947.77 880.592 4945.08 883.458C4942.4 886.325 4940.29 890.087 4938.77 894.746C4937.33 899.314 4936.62 904.958 4936.62 911.677V928.205H4980.02V937.745H4937.02V1057.74H4924.12Z" fill="blue"/>
<path d="M4802.32 977.247C4802.32 970.08 4801.29 963.675 4799.23 958.032C4797.26 952.298 4794.43 947.461 4790.76 943.519C4787.09 939.578 4782.7 936.577 4777.59 934.516C4772.58 932.366 4767.02 931.291 4760.93 931.291C4754.03 931.291 4747.85 932.366 4742.39 934.516C4736.92 936.666 4732.18 939.757 4728.14 943.788C4724.2 947.819 4721.02 952.657 4718.6 958.3C4716.19 963.944 4714.57 970.26 4713.77 977.247H4802.32ZM4713.09 985.444V987.997C4713.09 998.03 4714.26 1006.85 4716.59 1014.47C4718.92 1022.08 4722.23 1028.49 4726.53 1033.68C4730.83 1038.79 4736.03 1042.64 4742.12 1045.24C4748.21 1047.84 4755.02 1049.14 4762.54 1049.14C4769.26 1049.14 4775.09 1048.42 4780.01 1046.99C4784.94 1045.46 4789.06 1043.81 4792.37 1042.01C4795.78 1040.13 4798.47 1038.48 4800.44 1037.04C4802.41 1035.52 4803.84 1034.76 4804.74 1034.76C4805.9 1034.76 4806.8 1035.21 4807.42 1036.1L4810.92 1040.4C4808.77 1043.09 4805.9 1045.6 4802.32 1047.93C4798.82 1050.26 4794.88 1052.27 4790.49 1053.97C4786.19 1055.59 4781.54 1056.89 4776.52 1057.87C4771.59 1058.86 4766.62 1059.35 4761.6 1059.35C4752.47 1059.35 4744.13 1057.78 4736.61 1054.65C4729.09 1051.42 4722.64 1046.76 4717.26 1040.67C4711.89 1034.58 4707.72 1027.14 4704.76 1018.36C4701.9 1009.5 4700.46 999.374 4700.46 987.997C4700.46 978.411 4701.81 969.588 4704.49 961.525C4707.27 953.373 4711.21 946.386 4716.32 940.563C4721.52 934.651 4727.83 930.037 4735.27 926.723C4742.79 923.408 4751.3 921.751 4760.8 921.751C4768.32 921.751 4775.31 923.05 4781.76 925.648C4788.21 928.246 4793.81 932.053 4798.56 937.069C4803.3 941.996 4807.02 948.088 4809.71 955.344C4812.49 962.6 4813.87 970.931 4813.87 980.337C4813.87 982.308 4813.61 983.652 4813.07 984.369C4812.53 985.085 4811.63 985.444 4810.38 985.444H4713.09Z" fill="blue"/>
<path d="M4495.69 1057.6V923.901H4502.81C4505.05 923.901 4506.35 925.021 4506.7 927.26L4507.91 946.61C4513.11 939.175 4519.07 933.173 4525.79 928.604C4532.5 924.035 4540.07 921.751 4548.49 921.751C4558.26 921.751 4566.05 924.573 4571.88 930.216C4577.79 935.86 4581.77 943.699 4583.83 953.732C4585.45 948.267 4587.69 943.519 4590.55 939.488C4593.51 935.457 4596.87 932.142 4600.63 929.545C4604.39 926.857 4608.47 924.886 4612.86 923.632C4617.34 922.378 4621.91 921.751 4626.56 921.751C4633.19 921.751 4639.15 922.871 4644.44 925.11C4649.72 927.26 4654.2 930.485 4657.87 934.785C4661.55 939.085 4664.37 944.37 4666.34 950.641C4668.31 956.912 4669.3 964.078 4669.3 972.141V1057.6H4656.53V972.141C4656.53 959.062 4653.71 949.118 4648.06 942.31C4642.42 935.412 4634.36 931.963 4623.88 931.963C4619.22 931.963 4614.74 932.814 4610.44 934.516C4606.23 936.218 4602.47 938.772 4599.15 942.176C4595.93 945.49 4593.33 949.656 4591.36 954.672C4589.48 959.689 4588.54 965.512 4588.54 972.141V1057.6H4575.64V972.141C4575.64 959.151 4573.04 949.208 4567.84 942.31C4562.74 935.412 4555.21 931.963 4545.27 931.963C4538.01 931.963 4531.29 934.113 4525.11 938.413C4518.93 942.713 4513.42 948.67 4508.59 956.285V1057.6H4495.69Z" fill="blue"/>
<path d="M4452.49 923.848V1057.55H4439.72V923.848H4452.49ZM4458 877.758C4458 879.371 4457.64 880.893 4456.92 882.327C4456.3 883.67 4455.45 884.88 4454.37 885.955C4453.3 887.03 4452.04 887.881 4450.61 888.508C4449.17 889.135 4447.65 889.449 4446.04 889.449C4444.43 889.449 4442.9 889.135 4441.47 888.508C4440.04 887.881 4438.78 887.03 4437.71 885.955C4436.63 884.88 4435.78 883.67 4435.15 882.327C4434.53 880.893 4434.21 879.371 4434.21 877.758C4434.21 876.146 4434.53 874.623 4435.15 873.189C4435.78 871.666 4436.63 870.368 4437.71 869.293C4438.78 868.218 4440.04 867.367 4441.47 866.739C4442.9 866.112 4444.43 865.799 4446.04 865.799C4447.65 865.799 4449.17 866.112 4450.61 866.739C4452.04 867.367 4453.3 868.218 4454.37 869.293C4455.45 870.368 4456.3 871.666 4456.92 873.189C4457.64 874.623 4458 876.146 4458 877.758Z" fill="blue"/>
<path d="M4385.93 1059.61C4376.88 1059.61 4369.8 1057.1 4364.7 1052.09C4359.68 1047.07 4357.17 1039.32 4357.17 1028.84V937.467H4337.96C4336.97 937.467 4336.16 937.199 4335.54 936.661C4334.91 936.124 4334.6 935.362 4334.6 934.377V929.405L4357.44 927.793L4360.66 879.956C4360.84 879.15 4361.2 878.433 4361.74 877.806C4362.28 877.179 4363.04 876.865 4364.02 876.865H4370.07V927.927H4412.26V937.467H4370.07V1028.17C4370.07 1031.84 4370.52 1035.02 4371.41 1037.71C4372.4 1040.31 4373.7 1042.46 4375.31 1044.16C4377.01 1045.86 4378.98 1047.12 4381.22 1047.92C4383.46 1048.73 4385.88 1049.13 4388.48 1049.13C4391.7 1049.13 4394.48 1048.68 4396.81 1047.79C4399.14 1046.8 4401.16 1045.77 4402.86 1044.7C4404.56 1043.53 4405.95 1042.5 4407.02 1041.61C4408.1 1040.62 4408.95 1040.13 4409.58 1040.13C4410.29 1040.13 4411.01 1040.58 4411.73 1041.47L4415.22 1047.12C4411.82 1050.88 4407.47 1053.92 4402.19 1056.25C4396.99 1058.49 4391.57 1059.61 4385.93 1059.61Z" fill="blue"/>
<g filter="url(#filter0_i_1925_2)">
<circle cx="440.975" cy="440.975" r="440.975" fill="url(#paint0_linear_1925_2)"/>
</g>
<path d="M199.418 203.979C198.33 204.607 197.66 205.768 197.66 207.024L197.66 360.233C197.66 361.489 198.33 362.65 199.418 363.278L332.083 439.926C333.172 440.555 334.513 440.555 335.602 439.927L468.357 363.278C469.446 362.65 470.116 361.488 470.116 360.232L470.116 207.025C470.116 205.768 469.446 204.607 468.357 203.979L335.602 127.33C334.513 126.702 333.172 126.702 332.083 127.331L199.418 203.979Z" fill="#76CA6F"/>
<path d="M504.705 215.339C504.161 215.653 503.826 216.234 503.826 216.862L503.826 301.981C503.826 302.609 504.161 303.189 504.705 303.504L578.411 346.088C578.955 346.402 579.626 346.402 580.17 346.088L653.926 303.504C654.471 303.189 654.806 302.609 654.806 301.98L654.806 216.862C654.806 216.234 654.471 215.653 653.926 215.339L580.17 172.755C579.626 172.44 578.955 172.44 578.411 172.755L504.705 215.339Z" fill="#76CA6F" fill-opacity="0.8"/>
<path d="M655.297 345C654.889 345.235 654.638 345.671 654.638 346.142L654.638 387.815C654.638 388.287 654.889 388.722 655.297 388.958L691.383 409.806C691.791 410.042 692.294 410.042 692.703 409.807L728.813 388.958C729.221 388.722 729.473 388.286 729.473 387.815L729.473 346.142C729.473 345.671 729.221 345.235 728.813 345L692.703 324.151C692.294 323.915 691.791 323.915 691.383 324.151L655.297 345Z" fill="#76CA6F" fill-opacity="0.5"/>
<path d="M434.765 650.64C434.221 650.954 433.886 651.534 433.886 652.163L433.886 712.092C433.886 712.72 434.221 713.3 434.765 713.615L486.658 743.596C487.203 743.911 487.873 743.911 488.418 743.597L540.347 713.615C540.891 713.3 541.226 712.72 541.226 712.091L541.226 652.163C541.226 651.535 540.891 650.954 540.347 650.64L488.418 620.658C487.873 620.343 487.203 620.344 486.658 620.658L434.765 650.64Z" fill="#76CA6F" fill-opacity="0.4"/>
<path d="M429.15 422.566C428.198 423.116 427.612 424.132 427.612 425.231L427.612 552.792C427.612 553.891 428.198 554.907 429.15 555.457L539.607 619.274C540.559 619.824 541.733 619.824 542.686 619.274L653.218 555.457C654.17 554.907 654.757 553.891 654.757 552.791L654.757 425.231C654.757 424.132 654.17 423.116 653.218 422.566L542.686 358.748C541.733 358.198 540.559 358.199 539.607 358.749L429.15 422.566Z" fill="#76CA6F" fill-opacity="0.6"/>
<path d="M6358.18 257.752C6395.73 257.752 6429.16 265.085 6458.5 279.751C6488.42 294.417 6511.88 317.003 6528.89 347.508C6545.91 377.427 6554.41 416.145 6554.41 463.663V732.931H6444.42V477.742C6444.42 436.091 6434.44 404.999 6414.5 384.466C6395.14 363.934 6367.86 353.668 6332.66 353.668C6306.85 353.668 6283.97 358.948 6264.03 369.507C6244.08 380.067 6228.53 395.906 6217.39 417.025C6206.83 437.557 6201.55 463.663 6201.55 495.342V732.931H6091.55V80H6201.55V389.746L6177.79 351.028C6194.22 321.109 6217.97 298.23 6249.07 282.391C6280.74 265.965 6317.12 257.752 6358.18 257.752Z" fill="blue"/>
<path d="M5912.76 739.248C5861.14 739.248 5821.25 726.048 5793.09 699.65C5764.93 672.664 5750.85 633.066 5750.85 580.855V159.354H5860.85V578.215C5860.85 600.507 5866.42 617.813 5877.56 630.133C5889.3 642.452 5905.43 648.612 5925.96 648.612C5950.6 648.612 5971.13 642.159 5987.56 629.253L6018.36 707.569C6005.45 718.129 5989.61 726.048 5970.84 731.328C5952.07 736.608 5932.71 739.248 5912.76 739.248ZM5673.41 354.705V266.709H5986.68V354.705H5673.41Z" fill="blue"/>
<path d="M5327.02 733.055V263.156H5431.74V392.51L5419.42 354.672C5433.5 322.993 5455.5 298.941 5485.42 282.515C5515.92 266.089 5553.76 257.876 5598.93 257.876V362.591C5594.24 361.418 5589.84 360.831 5585.73 360.831C5581.63 360.245 5577.52 359.951 5573.41 359.951C5531.76 359.951 5498.62 372.271 5473.98 396.91C5449.34 420.962 5437.02 457.041 5437.02 505.145V733.055H5327.02Z" fill="blue"/>
<path d="M5143.68 733.055V638.019L5137.52 617.78V451.467C5137.52 419.202 5127.84 394.27 5108.48 376.671C5089.12 358.485 5059.79 349.392 5020.49 349.392C4994.09 349.392 4967.98 353.498 4942.17 361.711C4916.95 369.924 4895.53 381.364 4877.93 396.03L4834.82 315.953C4860.04 296.594 4889.96 282.222 4924.57 272.835C4959.77 262.862 4996.14 257.876 5033.69 257.876C5101.74 257.876 5154.24 274.302 5191.2 307.154C5228.74 339.419 5247.52 389.577 5247.52 457.627V733.055H5143.68ZM4995.85 739.215C4960.65 739.215 4929.85 733.348 4903.45 721.616C4877.05 709.296 4856.52 692.577 4841.86 671.458C4827.78 649.752 4820.74 625.407 4820.74 598.421C4820.74 572.022 4826.9 548.263 4839.22 527.144C4852.12 506.025 4872.95 489.306 4901.69 476.986C4930.44 464.667 4968.57 458.507 5016.09 458.507H5152.48V531.544H5024.01C4986.46 531.544 4961.24 537.704 4948.33 550.023C4935.42 561.756 4928.97 576.422 4928.97 594.021C4928.97 613.967 4936.89 629.806 4952.73 641.539C4968.57 653.272 4990.57 659.138 5018.73 659.138C5045.71 659.138 5069.77 652.979 5090.88 640.659C5112.59 628.34 5128.14 610.154 5137.52 586.102L5156 652.099C5145.44 679.671 5126.38 701.083 5098.8 716.336C5071.82 731.589 5037.5 739.215 4995.85 739.215Z" fill="blue"/>
<path d="M4558.22 739.215C4506.01 739.215 4460.25 728.949 4420.95 708.416C4382.23 687.297 4352.01 658.552 4330.31 622.18C4309.19 585.808 4298.63 544.45 4298.63 498.105C4298.63 451.174 4308.9 409.816 4329.43 374.031C4350.55 337.659 4379.29 309.207 4415.67 288.675C4452.62 268.142 4494.57 257.876 4541.5 257.876C4587.26 257.876 4628.03 267.849 4663.81 287.795C4699.6 307.74 4727.76 335.899 4748.29 372.271C4768.82 408.643 4779.09 451.468 4779.09 500.745C4779.09 505.438 4778.8 510.718 4778.21 516.585C4778.21 522.451 4777.92 528.024 4777.33 533.304H4385.75V460.267H4719.25L4676.13 483.146C4676.72 456.161 4671.15 432.402 4659.41 411.869C4647.68 391.337 4631.55 375.204 4611.02 363.471C4591.07 351.739 4567.9 345.872 4541.5 345.872C4514.51 345.872 4490.76 351.739 4470.22 363.471C4450.28 375.204 4434.44 391.63 4422.71 412.749C4411.56 433.282 4405.99 457.627 4405.99 485.786V503.385C4405.99 531.544 4412.44 556.476 4425.35 578.182C4438.25 599.888 4456.44 616.607 4479.9 628.34C4503.37 640.073 4530.35 645.939 4560.86 645.939C4587.26 645.939 4611.02 641.833 4632.14 633.62C4653.25 625.407 4672.03 612.5 4688.45 594.901L4747.41 662.658C4726.29 687.297 4699.6 706.363 4667.33 719.856C4635.66 732.762 4599.28 739.215 4558.22 739.215Z" fill="blue"/>
<path d="M4145.7 640.129C4137.67 644.828 4132.73 653.509 4132.73 662.902L4132.73 696.293C4132.73 705.686 4137.67 714.367 4145.7 719.066L4174.23 735.766C4182.27 740.468 4192.17 740.47 4200.2 735.77L4228.76 719.064C4236.79 714.366 4241.74 705.684 4241.74 696.288L4241.74 662.907C4241.74 653.511 4236.79 644.829 4228.76 640.13L4200.2 623.425C4192.17 618.725 4182.27 618.726 4174.23 623.428L4145.7 640.129Z" fill="blue"/>
<path d="M3836.99 739.091C3797.1 739.091 3761.6 730.292 3730.51 712.692C3699.42 695.093 3674.78 668.694 3656.6 633.496C3639 597.711 3630.2 552.539 3630.2 497.982C3630.2 442.837 3639.29 397.666 3657.48 362.468C3676.25 327.269 3701.18 301.164 3732.27 284.151C3763.95 266.552 3798.86 257.752 3836.99 257.752C3883.33 257.752 3924.1 267.725 3959.3 287.671C3995.09 307.617 4023.25 335.482 4043.78 371.267C4064.9 407.052 4075.46 449.29 4075.46 497.982C4075.46 546.673 4064.9 588.911 4043.78 624.696C4023.25 660.481 3995.09 688.64 3959.3 709.172C3924.1 729.118 3883.33 739.091 3836.99 739.091ZM3576.52 732.931V80H3686.51V372.147L3677.71 497.102L3681.23 622.056V732.931H3576.52ZM3824.67 644.935C3851.07 644.935 3874.53 639.069 3895.07 627.336C3916.18 615.603 3932.9 598.591 3945.22 576.298C3957.54 554.006 3963.7 527.9 3963.7 497.982C3963.7 467.476 3957.54 441.371 3945.22 419.665C3932.9 397.373 3916.18 380.36 3895.07 368.627C3874.53 356.895 3851.07 351.028 3824.67 351.028C3798.27 351.028 3774.51 356.895 3753.39 368.627C3732.27 380.36 3715.55 397.373 3703.23 419.665C3690.91 441.371 3684.75 467.476 3684.75 497.982C3684.75 527.9 3690.91 554.006 3703.23 576.298C3715.55 598.591 3732.27 615.603 3753.39 627.336C3774.51 639.069 3798.27 644.935 3824.67 644.935Z" fill="blue"/>
<path d="M3246.49 733.055V263.156H3351.2V392.51L3338.88 354.672C3352.96 322.993 3374.96 298.941 3404.88 282.515C3435.39 266.089 3473.22 257.876 3518.4 257.876V362.591C3513.7 361.418 3509.3 360.831 3505.2 360.831C3501.09 360.245 3496.98 359.951 3492.88 359.951C3451.23 359.951 3418.08 372.271 3393.44 396.91C3368.8 420.962 3356.48 457.041 3356.48 505.145V733.055H3246.49Z" fill="blue"/>
<path d="M3071.42 733.055V638.019L3065.26 617.78V451.467C3065.26 419.202 3055.58 394.27 3036.22 376.671C3016.87 358.485 2987.53 349.392 2948.23 349.392C2921.83 349.392 2895.72 353.498 2869.91 361.711C2844.69 369.924 2823.27 381.364 2805.67 396.03L2762.56 315.953C2787.78 296.594 2817.7 282.222 2852.31 272.835C2887.51 262.862 2923.88 257.876 2961.43 257.876C3029.48 257.876 3081.98 274.302 3118.94 307.154C3156.49 339.419 3175.26 389.577 3175.26 457.627V733.055H3071.42ZM2923.59 739.215C2888.39 739.215 2857.59 733.348 2831.19 721.616C2804.79 709.296 2784.26 692.577 2769.6 671.458C2755.52 649.752 2748.48 625.407 2748.48 598.421C2748.48 572.022 2754.64 548.263 2766.96 527.144C2779.86 506.025 2800.69 489.306 2829.43 476.986C2858.18 464.667 2896.31 458.507 2943.83 458.507H3080.22V531.544H2951.75C2914.2 531.544 2888.98 537.704 2876.07 550.023C2863.17 561.756 2856.71 576.422 2856.71 594.021C2856.71 613.967 2864.63 629.806 2880.47 641.539C2896.31 653.272 2918.31 659.138 2946.47 659.138C2973.45 659.138 2997.51 652.979 3018.63 640.659C3040.33 628.34 3055.88 610.154 3065.26 586.102L3083.74 652.099C3073.18 679.671 3054.12 701.083 3026.55 716.336C2999.56 731.589 2965.24 739.215 2923.59 739.215Z" fill="blue"/>
<path d="M2486.65 739.215C2437.37 739.215 2393.37 728.949 2354.65 708.416C2316.52 687.297 2286.6 658.552 2264.9 622.18C2243.19 585.808 2232.34 544.45 2232.34 498.105C2232.34 451.174 2243.19 409.816 2264.9 374.031C2286.6 337.659 2316.52 309.207 2354.65 288.675C2393.37 268.142 2437.37 257.876 2486.65 257.876C2532.4 257.876 2572.59 267.262 2607.2 286.035C2642.4 304.221 2669.09 331.206 2687.28 366.991L2602.8 416.269C2588.72 393.977 2571.42 377.551 2550.88 366.991C2530.94 356.432 2509.23 351.152 2485.77 351.152C2458.78 351.152 2434.44 357.018 2412.73 368.751C2391.02 380.484 2374.01 397.497 2361.69 419.789C2349.37 441.495 2343.21 467.6 2343.21 498.105C2343.21 528.611 2349.37 555.01 2361.69 577.302C2374.01 599.008 2391.02 615.727 2412.73 627.46C2434.44 639.193 2458.78 645.059 2485.77 645.059C2509.23 645.059 2530.94 639.779 2550.88 629.22C2571.42 618.66 2588.72 602.234 2602.8 579.942L2687.28 629.22C2669.09 664.418 2642.4 691.697 2607.2 711.056C2572.59 729.829 2532.4 739.215 2486.65 739.215Z" fill="blue"/>
<path d="M1952.84 739.215C1900.63 739.215 1854.88 728.949 1815.57 708.416C1776.85 687.297 1746.64 658.552 1724.93 622.18C1703.82 585.808 1693.26 544.45 1693.26 498.105C1693.26 451.174 1703.52 409.816 1724.05 374.031C1745.17 337.659 1773.92 309.207 1810.29 288.675C1847.25 268.142 1889.19 257.876 1936.13 257.876C1981.88 257.876 2022.65 267.849 2058.44 287.795C2094.22 307.74 2122.38 335.899 2142.92 372.271C2163.45 408.643 2173.71 451.468 2173.71 500.745C2173.71 505.438 2173.42 510.718 2172.83 516.585C2172.83 522.451 2172.54 528.024 2171.95 533.304H1780.37V460.267H2113.88L2070.76 483.146C2071.35 456.161 2065.77 432.402 2054.04 411.869C2042.31 391.337 2026.17 375.204 2005.64 363.471C1985.7 351.739 1962.52 345.872 1936.13 345.872C1909.14 345.872 1885.38 351.739 1864.85 363.471C1844.9 375.204 1829.06 391.63 1817.33 412.749C1806.18 433.282 1800.61 457.627 1800.61 485.786V503.385C1800.61 531.544 1807.06 556.476 1819.97 578.182C1832.88 599.888 1851.06 616.607 1874.53 628.34C1897.99 640.073 1924.98 645.939 1955.48 645.939C1981.88 645.939 2005.64 641.833 2026.76 633.62C2047.88 625.407 2066.65 612.5 2083.08 594.901L2142.04 662.658C2120.92 687.297 2094.22 706.363 2061.96 719.856C2030.28 732.762 1993.91 739.215 1952.84 739.215Z" fill="blue"/>
<path d="M1366.59 739.091C1321.42 739.091 1280.65 729.118 1244.27 709.172C1208.49 688.64 1180.33 660.481 1159.8 624.696C1139.27 588.911 1129 546.673 1129 497.982C1129 449.29 1139.27 407.052 1159.8 371.267C1180.33 335.482 1208.49 307.617 1244.27 287.671C1280.65 267.725 1321.42 257.752 1366.59 257.752C1405.89 257.752 1441.09 266.552 1472.18 284.151C1503.28 301.164 1527.92 327.269 1546.1 362.468C1564.29 397.666 1573.38 442.837 1573.38 497.982C1573.38 552.539 1564.58 597.711 1546.98 633.496C1529.38 668.694 1505.04 695.093 1473.94 712.692C1442.85 730.292 1407.07 739.091 1366.59 739.091ZM1379.79 644.935C1406.19 644.935 1429.65 639.069 1450.19 627.336C1471.3 615.603 1488.02 598.591 1500.34 576.298C1513.25 554.006 1519.7 527.9 1519.7 497.982C1519.7 467.476 1513.25 441.371 1500.34 419.665C1488.02 397.373 1471.3 380.36 1450.19 368.627C1429.65 356.895 1406.19 351.028 1379.79 351.028C1353.39 351.028 1329.63 356.895 1308.51 368.627C1287.98 380.36 1271.26 397.373 1258.35 419.665C1246.03 441.371 1239.88 467.476 1239.88 497.982C1239.88 527.9 1246.03 554.006 1258.35 576.298C1271.26 598.591 1287.98 615.603 1308.51 627.336C1329.63 639.069 1353.39 644.935 1379.79 644.935ZM1522.34 732.931V622.056L1526.74 497.102L1517.94 372.147V80H1627.06V732.931H1522.34Z" fill="blue"/>
<path fill-rule="evenodd" clip-rule="evenodd" d="M6575.81 175.023C6597.06 175.023 6614.29 157.798 6614.29 136.551C6614.29 115.303 6597.06 98.0785 6575.81 98.0785C6554.57 98.0785 6537.34 115.303 6537.34 136.551C6537.34 157.798 6554.57 175.023 6575.81 175.023ZM6575.81 183.038C6601.49 183.038 6622.3 162.225 6622.3 136.551C6622.3 110.877 6601.49 90.0635 6575.81 90.0635C6550.14 90.0635 6529.33 110.877 6529.33 136.551C6529.33 162.225 6550.14 183.038 6575.81 183.038Z" fill="blue"/>
<path d="M6573.19 135.797C6575.05 135.797 6576.69 135.573 6578.11 135.126C6579.56 134.656 6580.76 134.007 6581.71 133.179C6582.69 132.329 6583.42 131.322 6583.91 130.159C6584.4 128.996 6584.64 127.709 6584.64 126.3C6584.64 123.436 6583.71 121.277 6581.84 119.823C6579.98 118.368 6577.18 117.641 6573.45 117.641H6566.39V135.797H6573.19ZM6595.23 160.597H6589.5C6588.33 160.597 6587.46 160.138 6586.91 159.221L6574.52 142.039C6574.14 141.502 6573.73 141.122 6573.29 140.898C6572.86 140.652 6572.2 140.529 6571.29 140.529H6566.39V160.597H6559.97V112.507H6573.45C6576.47 112.507 6579.08 112.82 6581.28 113.446C6583.48 114.051 6585.29 114.934 6586.71 116.098C6588.15 117.261 6589.22 118.671 6589.9 120.326C6590.59 121.959 6590.94 123.794 6590.94 125.83C6590.94 127.53 6590.67 129.119 6590.14 130.595C6589.6 132.072 6588.83 133.403 6587.81 134.589C6586.81 135.752 6585.57 136.748 6584.11 137.576C6582.67 138.403 6581.02 139.03 6579.18 139.455C6580 139.925 6580.71 140.607 6581.31 141.502L6595.23 160.597Z" fill="blue"/>
<defs>
<filter id="filter0_i_1925_2" x="0" y="0" width="881.949" height="881.949" filterUnits="userSpaceOnUse" color-interpolation-filters="sRGB">
<feFlood flood-opacity="0" result="BackgroundImageFix"/>
<feBlend mode="normal" in="SourceGraphic" in2="BackgroundImageFix" result="shape"/>
<feColorMatrix in="SourceAlpha" type="matrix" values="0 0 0 0 0 0 0 0 0 0 0 0 0 0 0 0 0 0 127 0" result="hardAlpha"/>
<feOffset/>
<feGaussianBlur stdDeviation="0.658205"/>
<feComposite in2="hardAlpha" operator="arithmetic" k2="-1" k3="1"/>
<feColorMatrix type="matrix" values="0 0 0 0 0 0 0 0 0 0 0 0 0 0 0 0 0 0 0.25 0"/>
<feBlend mode="normal" in2="shape" result="effect1_innerShadow_1925_2"/>
</filter>
<linearGradient id="paint0_linear_1925_2" x1="440.975" y1="0" x2="440.975" y2="881.949" gradientUnits="userSpaceOnUse">
<stop stop-color="#5185A3"/>
<stop offset="1" stop-color="#3A6075"/>
</linearGradient>
</defs>
</svg>
